<svg xmlns="http://www.w3.org/2000/svg" width="748.469" height="384.948" viewBox="0 0 748.469 384.948"><g transform="translate(-6.357 0.181)"><g transform="translate(6.857 0.819)"><path d="M93.79,176.874a12.866,12.866,0,0,1,1.579-.574c9.576-2.733,19.381-4.989,29.335-5.269,1.674-.472,3.377-.883,5.089-1.261,1.312-.562,2.61-1.134,3.846-1.762V141.032a8.32,8.32,0,0,1-2.666-.092c-1.851.482-3.725.93-5.653,1.317-6.025,1.209-12.943,2.455-18.94.737-.2.017-.406.049-.611.061a78.926,78.926,0,0,1-11.369.83q-22.453,0-35.722-14.674T45.41,89.818q0-25.782,14.063-40.877T96.442,33.851a74.588,74.588,0,0,1,7.49.419,42.127,42.127,0,0,1,14.69.737c.588-.019,2.4.095,2.84.092,3.779-.019,7.973.214,11.213,2.309.327.134.653.273.964.433V7.116Q117.31.819,93.5.82,55.054.82,30.955,26.248t-24.1,66.3q0,38.383,21.434,61.433t58.856,23.053C89.426,177.039,91.613,176.959,93.79,176.874Z" transform="translate(-6.857 -0.818)" fill="#f37369" stroke="#f37369" stroke-miterlimit="10" stroke-width="1"/><path d="M214.384,172.389H177.643v-69.4H110.282v69.4H73.654V1.991h36.628V69.96h67.361V1.991h36.742Z" transform="translate(81.48 0.861)" fill="#f37369" stroke="#f37369" stroke-miterlimit="10" stroke-width="1"/><path d="M247.791,172.389H150.266V1.991H244.05V33.243H186.9V71.148h53.185v31.133H186.9v38.976h60.9v31.133Z" transform="translate(182.798 0.861)" fill="#f37369" stroke="#f37369" stroke-miterlimit="10" stroke-width="1"/><path d="M290.725,143.925a12.559,12.559,0,0,1-1.6-.117c-.829.024-1.647.08-2.485.08q-22.452,0-35.72-14.674T237.649,89.822q0-25.782,14.063-40.877t36.967-15.091c.625,0,1.231.044,1.851.058,10.995-3.161,25.366-.56,35.346,5.719V7.117Q309.544.82,285.732.819q-38.439,0-62.54,25.428t-24.1,66.3q0,38.383,21.434,61.433t58.854,23.053q28.688,0,46.5-9.031V138.469C315.218,144.389,302.658,143.985,290.725,143.925Z" transform="translate(247.372 -0.819)" fill="#f37369" stroke="#f37369" stroke-miterlimit="10" stroke-width="1"/><path d="M337.487,83.27l56.7-81.276h-43.66L305.62,73.051q-3.177,6.18-4.536,9.505h-.567V1.991H263.89V169.885a14.208,14.208,0,0,1,.483,2.5h36.145V88.974h.567a72.475,72.475,0,0,0,4.308,9.386l47.4,74.029h46.268Z" transform="translate(333.063 0.861)" fill="#f37369" stroke="#f37369" stroke-miterlimit="10" stroke-width="1"/></g><g transform="translate(33.54 207.548)"><path d="M54.974,198.638v58.7H18.346V86.94H75.727q61.463,0,61.464,54.3,0,25.666-17.635,41.529T72.439,198.636H54.974Zm0-82.228v53.115h14.4q29.256,0,29.259-26.854,0-26.261-29.259-26.261Z" transform="translate(-18.346 -84.088)" fill="#c62569" stroke="#f37369" stroke-miterlimit="10" stroke-width="1"/><path d="M154.305,261.987q-34.928,0-56.929-23.825t-22-62.087q0-40.4,22.34-65.353t59.2-24.954q34.813,0,56.3,23.883t21.49,62.978q0,40.165-22.284,64.76T154.305,261.987ZM155.894,118.8q-19.279,0-30.619,15.151t-11.341,40.1q0,25.311,11.341,40.044t29.711,14.735q18.938,0,30.051-14.319t11.113-39.747q0-26.5-10.774-41.232T155.894,118.8Z" transform="translate(57.075 -85.768)" fill="#c62569" stroke="#f37369" stroke-miterlimit="10" stroke-width="1"/><path d="M192.23,257.338H155.6V86.94H192.23Z" transform="translate(163.172 -84.088)" fill="#c62569" stroke="#f37369" stroke-miterlimit="10" stroke-width="1"/><path d="M333.579,257.338H296.61L229.59,150.276a155.833,155.833,0,0,1-8.166-14.141h-.453q.906,9.031.908,27.567v93.636H187.291V86.94h39.464L291.28,190.675q4.424,7.012,8.166,13.9h.453q-.909-5.939-.908-23.408V86.94h34.589v170.4Z" transform="translate(205.08 -84.088)" fill="#c62569" stroke="#f37369" stroke-miterlimit="10" stroke-width="1"/><path d="M389.079,118.192H342.7V257.338H305.955V118.192H259.8V86.94H389.079Z" transform="translate(300.972 -84.088)" fill="#c62569" stroke="#f37369" stroke-miterlimit="10" stroke-width="1"/></g><g transform="translate(20.792 0.819)"><path d="M97.99,34.041c.941-.08,1.881-.114,2.822-.119.55-.012,1.075-.068,1.633-.068a76.656,76.656,0,0,1,14.416,1.338,17.355,17.355,0,0,1,7.086,1.772,65.4,65.4,0,0,1,15.7,7.108V7.116Q123.309.819,99.5.82,61.054.82,36.955,26.248t-24.1,66.3q0,38.383,21.434,61.433Q53.636,174.793,86.02,176.8a12.743,12.743,0,0,1,1.417-.5c9.557-2.728,19.342-4.979,29.277-5.266,5.044-1.433,10.447-2.127,15.14-3.86a9.723,9.723,0,0,1,7.787.591V134.33a59.1,59.1,0,0,1-7.992,3.833,10.309,10.309,0,0,1-8.537,2.757c-1.874.489-3.772.942-5.725,1.336-4.478.9-9.448,1.82-14.165,1.531-.938.034-1.867.1-2.817.1q-22.453,0-35.722-14.674T51.415,89.82q0-25.782,14.063-40.877Q78.134,35.357,97.99,34.041Z" transform="translate(-12.857 -0.818)" fill="none" stroke="#c62569" stroke-miterlimit="10" stroke-width="2"/><path d="M220.384,172.389H183.643v-69.4H116.282v69.4H79.654V1.991h36.628V69.96h67.361V1.991h36.742Z" transform="translate(75.48 0.861)" fill="none" stroke="#c62569" stroke-miterlimit="10" stroke-width="2"/><path d="M253.791,172.389H156.266V1.991H250.05V33.243H192.9V71.148h53.185v31.133H192.9v38.976h60.9v31.133Z" transform="translate(176.798 0.861)" fill="none" stroke="#c62569" stroke-miterlimit="10" stroke-width="2"/><path d="M327.649,163.86a11.981,11.981,0,0,1,3.333-.467c.307,0,.6.027.894.046V132.954a72.778,72.778,0,0,1-30.647,10.438c-.474.054-.95.1-1.426.141-.992.088-1.988.168-2.994.221-4.668.263-9.39.195-14.018.17a10.7,10.7,0,0,1-7.246-2.638,42.6,42.6,0,0,1-18.626-12.073q-13.269-14.674-13.268-39.392,0-25.782,14.063-40.877A45.528,45.528,0,0,1,275.518,37.1c8.338-5.573,21.172-5.7,32.273-2.115a66.02,66.02,0,0,1,24.084,9.094V7.117Q315.544.82,291.732.819q-38.439,0-62.54,25.428t-24.1,66.3q0,38.383,21.434,61.433t58.854,23.053c.713,0,1.387-.034,2.093-.041,11.15-1.886,23.582-2.55,31.816-10.041A11.126,11.126,0,0,1,327.649,163.86Z" transform="translate(241.372 -0.819)" fill="none" stroke="#c62569" stroke-miterlimit="10" stroke-width="2"/><path d="M405.065,172.389H358.8l-47.4-74.029a72.012,72.012,0,0,1-4.308-9.386h-.567v83.415H269.89V1.991h36.628V82.554h.567q1.362-3.325,4.536-9.505L356.528,1.991h43.66l-56.7,81.279Z" transform="translate(327.063 0.861)" fill="none" stroke="#c62569" stroke-miterlimit="10" stroke-width="2"/></g><g transform="translate(47.475 207.548)"><path d="M60.974,198.638v58.7H24.346V86.94H81.727q61.463,0,61.464,54.3,0,25.666-17.635,41.529T78.439,198.636H60.974Zm0-82.228v53.115h14.4q29.256,0,29.259-26.854,0-26.261-29.259-26.261Z" transform="translate(-24.346 -84.088)" fill="none" stroke="#f37369" stroke-miterlimit="10" stroke-width="2"/><path d="M160.305,261.987q-34.928,0-56.929-23.825t-22-62.087q0-40.4,22.34-65.353t59.2-24.954q34.813,0,56.3,23.883t21.49,62.978q0,40.165-22.284,64.76T160.305,261.987ZM161.894,118.8q-19.279,0-30.62,15.151t-11.341,40.1q0,25.311,11.341,40.044t29.711,14.735q18.937,0,30.051-14.319t11.113-39.747q0-26.5-10.774-41.232T161.894,118.8Z" transform="translate(51.075 -85.768)" fill="none" stroke="#f37369" stroke-miterlimit="10" stroke-width="2"/><path d="M198.23,257.338H161.6V86.94H198.23Z" transform="translate(157.172 -84.088)" fill="none" stroke="#f37369" stroke-miterlimit="10" stroke-width="2"/><path d="M339.579,257.338H302.61L235.59,150.276a155.833,155.833,0,0,1-8.166-14.141h-.453q.906,9.031.908,27.567v93.636H193.291V86.94h39.464L297.28,190.675q4.424,7.012,8.166,13.9h.453q-.909-5.939-.908-23.408V86.94h34.589Z" transform="translate(199.08 -84.088)" fill="none" stroke="#f37369" stroke-miterlimit="10" stroke-width="2"/><path d="M395.079,118.192H348.7V257.338H311.956V118.192H265.8V86.94H395.079Z" transform="translate(294.972 -84.088)" fill="none" stroke="#f37369" stroke-miterlimit="10" stroke-width="2"/></g></g></svg>