<svg xmlns="http://www.w3.org/2000/svg" width="1920" height="418.844" viewBox="0 0 1920 418.844"><g transform="translate(0 -662.156)"><path d="M0,681l45.7-5c45.6-5,137-15,228.5-1.5S457.3,725,548.8,749,731.7,784,823,788.3c91.3,4.4,182.7,2,274-20.1,91.3-22.2,182.7-64.2,274.2-85.7S1554.3,660,1645.8,664s182.9,13,228.5,17.5L1920,686v395H0Z" fill="#c62368"/><path d="M0,708l45.7,11.5c45.6,11.5,137,34.5,228.5,47.2,91.5,12.6,183.1,15,274.6,9S731.7,755.3,823,743s182.7-22.7,274-3,182.7,69.3,274.2,84.2c91.5,14.8,183.1-5.2,274.6-29.2s182.9-52,228.5-66l45.7-14v366H0Z" fill="#d53867"/><path d="M0,883l45.7-6.3c45.6-6.4,137-19,228.5-24.4C365.7,847,457.3,849,548.8,842S731.7,819,823,813.7c91.3-5.4,182.7,0,274,19.5s182.7,53.1,274.2,51.1,183.1-39.6,274.6-49.6,182.9,7.6,228.5,16.5L1920,860v221H0Z" fill="#e34c67"/><path d="M0,903l45.7,4c45.6,4,137,12,228.5,11.7,91.5-.4,183.1-9,274.6-10.4,91.5-1.3,182.9,4.7,274.2,8.4,91.3,3.6,182.7,5,274,12.6,91.3,7.7,182.7,21.7,274.2,12.4,91.5-9.4,183.1-42,274.6-58.2s182.9-15.8,228.5-15.7l45.7.2v213H0Z" fill="#ef5f67"/><path d="M0,1033l45.7-9.2c45.6-9.1,137-27.5,228.5-33.5s183.1.4,274.6-3.1S731.7,970.3,823,970s182.7,12.3,274,22.8,182.7,18.9,274.2,19.7,183.1-5.8,274.6-15.2c91.5-9.3,182.9-21.3,228.5-27.3l45.7-6v117H0Z" fill="#fa7268"/></g></svg>